<?xml version="1.0" standalone="no"?><!DOCTYPE svg PUBLIC "-//W3C//DTD SVG 1.1//EN" "http://www.w3.org/Graphics/SVG/1.1/DTD/svg11.dtd">
<svg xmlns:xlink="http://www.w3.org/1999/xlink"
    style=""
    class="icon"
    height="200"
    p-id="1201"
    t="1487737513529"
    version="1.1"
    viewBox="0 0 1024 1024"
    width="200"
    xmlns="http://www.w3.org/2000/svg">
    <defs>
        <style type="text/css"></style>
    </defs>
    <path
        d="M512.001 63.488q93.185 0 174.593 35.328T828.93 194.56t96.256 142.337 35.328 174.08q0 93.185-35.328 174.593T828.93 827.906t-142.336 96.256T512 959.49q-92.16 0-174.08-35.328t-142.336-96.256T99.84 685.57 64.512 510.977q0-92.16 35.328-174.08t95.745-142.337T337.92 98.816 512 63.488z m162.817 222.209q-29.696 0-50.688 24.576t-20.992 60.416q0 34.816 20.992 59.392t50.688 24.576 50.176-24.576 20.48-59.392q0-35.84-20.48-60.416t-50.176-24.576z m-331.777 2.048q-28.672 0-49.152 24.576t-20.48 59.392q0 35.84 20.48 60.416t49.152 24.576 48.64-24.576 19.968-60.416q0-34.816-19.968-59.392t-48.64-24.576z m422.913 351.233q1.024-2.048 1.024-7.168t-1.536-11.264-6.144-11.264-12.8-8.192q-23.552 28.672-58.368 51.2-29.696 19.456-75.264 35.328T505.857 703.49 401.41 687.618t-72.704-35.328q-33.792-22.528-57.344-51.2-8.192 2.048-12.288 7.168t-6.144 11.264-2.048 11.264 1.024 8.192q1.024 1.024 0.512 1.536t0.512 1.536q9.216 27.648 32.768 51.712t57.344 41.984 76.288 27.648 89.6 9.728q93.185 0 160.769-33.792t92.16-89.088q0-2.048 1.024-4.096t3.072-7.168z"
        fill="#66E6B9"
        p-id="1202"></path>
</svg>